<?xml version="1.0" encoding="UTF-8"?>
<svg id="Layer_1" data-name="Layer 1" xmlns="http://www.w3.org/2000/svg" viewBox="0 0 532.27 593.85">
  <path d="M223.32,60.75c-1.95,1.33-12.55,6.02-15.36,7.14-11.58,4.59-24.79,8-37.26,8.19-.53-2.83.73-1.61,2.18-2.26,13.62-6.12,40.09-15.73,48.88-21.29s30.53-31.31,32.37-31.36c2.57-.07.38,5.01-.01,5.96-3.78,9.1-22.45,27.93-30.8,33.62Z"/>
  <g>
    <path d="M16.82,243.28c.04-1.12-7.56-15.26-8.7-19.15-20.06-68.56,59.13-122.19,117.57-132.61,3.95-.7,17.6-1.22,19.37-2.36,1.65-1.06,2.26-8.46,3.18-11.04,6.59-18.36,43.02-42.35,59.9-52.98,18.87-11.88,50.93-28.57,73.51-24.5,11.08,1.99,19.83,12.31,31.19,10.3s13.91-7.89,27.7-2.25c28.91,11.81,34.02,55.61,40.94,81.93,20.54,11.65,40.63,24.82,56.97,41.96,11.56-6.35,21.63-15.99,33.07-22.93,9.16-5.55,23.65-13.21,34.34-13.19,26.46.06,32.88,25.44,19.95,45.48-11.11,17.21-37.16,24.09-54.37,34.06-.68.91,10.77,16.91,12.16,19.29,80.36,137.28,26.5,310.58-118.4,375.41C169.19,658.39-41.69,483.34,7.13,274.65c1.76-7.54,9.48-25.87,9.69-31.37M316.58,17.14c4.28-.85,20.87,5.2,9.54,6.05-19.07,1.43-35.28-17.36-52.05-18.06-22.2-.93-64.92,27.51-83.29,40.58-9.88,7.03-26.71,18.23-32.58,28.36-2.61,4.52-5.04,9.62-4.47,15,11.29-2.19,23.86-.44,35.33,1.13,38.27,5.22,73.39,22.16,106.24,41.61,29.44-2.6,59.15-1.45,88.21,4.2l-16.99-77.9s-4.9-22.81-15.48-33.96c-2.14-2.26-12.86-10.76-15.43-11.54-5.15-1.55-15.49.32-19.03,4.53ZM357.3,159.14c-59.24,5.6-72-26.32-103.31-39.96-55.7-24.28-115.55-29.65-171.57-3-80.02,38.07-102.62,123.55-9.32,162.85,7.05,2.97,14.67,5.8,14.67,5.8,12.26,4.27,33.71,5.85,36.47,6,8.44.46,17.03-.34,25.48,0,.79-3.2-9.27-13.35-10.17-15.3-5.96-12.9-1.55-20.49-2.79-32.14-.28-2.63-1.72-4.78-1.94-7.07-.44-4.43-3.86-19.55,4.26-29.04,35.94-41.98,139.18-50.07,191.03-48.33M473.45,160.98c22.06,1.15,57.96-20.52,51.48-45.96-1.65-6.5-8.25-12.23-15.01-12.96-24.5-2.62-64.27,37.99-90.42,46.46-19.59,6.34-31.08,3.12-50.39,2.48-9.83-.33-37.47,1.26-47.29,1.03l35.48,7.12c28.95,1.97,51.08.93,80.04,1.88,12.8.42,23.31-.41,36.11-.04h0ZM417.49,143c1.29-1.66-26.63-23.03-29.96-23.96l3.98,27.97c8.95.74,17.55-1.31,25.98-4.01ZM389.51,194.94l-8.38-20.94c-.51-1.55,1.45-3.98-1.27-4.88-15.99-1.43-31.83-1.75-47.88-2.14-26.06-.63-52.59.26-78.85,3-3.07.32-22.7,2.97-23.47,4.03,3.76,14.67-1.64,26.86-12.01,36.91l36.26-7.2c15.86-18.05,36.44-15.16,57.89-10.5,9.89,2.15,16.04,2.61,9.76,13.7,9.05,1.86,21.78,10.1,31.2,4.99.32-.17,4.69-4.46,5.21-5.04,1.96-2.2,2.43-4.87,5.53-7.45,7.21-5.99,17.18-6.21,26-4.48ZM32.83,261.87c-29.44,88.95-3.88,184.56,64.92,247.22,169.16,154.07,438.29,4.37,398.36-220.44-6.45-36.33-21.37-72.75-44.29-101.54l-33.32,15.83,11.85,3.11c.84,3.97,1.1,9.84-.55,13.62-.85,1.94-4.9,2.85-6.4,6.65-5.45,13.78-1.89,31.31-16.41,42.53-1.92,1.48-8.93,4.41-9.36,5.63-.9,2.57.22,8.51-.14,11.84-2.64,24.33-15.66,42.58-22.27,64.63-4.99,16.64-2.46,30.86-17.67,43.27-4.1,3.34-8.63,4.78-12.67,7.91l39.68,95.19c-15.68-13.75-29.19-4.12-60.02,21.71-6.96,5.83-14.7,17.11-18.98,24.97-1.16,2.13-2.64,8.23-2.98,8.51-1.02.84-4.31-.51-4.02-2.49.61-7.1,5.9-22.4,4.84-28.72-.79-4.69-8.15-20.23-10.63-25.41-1.07-2.23-4.28-9.26-5.88-10.36-2.07-1.42-10.99-4.01-13.64-3.89-12.6.61-26.43,21.42-32.63,31.38-1.59,2.55-7.71,15.2-8.56,15.44-.62.18-1.5-.38-2.16-.62-8.1-10.79-17.4-20.67-25.63-31.39-19.55-25.48-37.4-56.05-50.42-85.44-2.58-5.83-5.62-11.91-6.14-18.34l-35.96,14.98c-.32-2.32,1.75-3.16,3.3-4.18,8.53-5.66,20.85-9.42,30.23-13.73,10.11-16.76,14.24-43.9,36.41-48.02.41-1.51-.39-1.65-.98-2.5-2.86-4.11-9.04-8.92-12.42-13.55-5.82-7.98-11.59-18.81-11.57-28.89-35.48,5.74-77.34-3.26-107.44-22.94-5-3.27-9.38-7.87-13.94-11.03-.85-.59-1-1.39-2.5-.98M245.36,234.16c-.29-.49-1.81-.56-2.5-1.93s-.35-3.98-1.69-5.34c-3.82-3.9-32.19,4.81-38.51,5.04l3.87,30.24c-.95,3.54-15.52,5.23-17.41,3.81-4.06-3.04-3.33-14.53-5.66-19.36-1.77-3.66-17.69-16.58-21.53-17.5-9.15-2.19-15.31,6.16-17.94,13.57-7.07,19.98,4.39,39.37,18.69,52.67,5.65,5.25,15.25,13.15,23.38,12.19,3.41-.4,4.74-5.51,8.6-4.7.69,6.57-3.49,8.47-8,11.69,1.31,13.19,1.14,26.55,0,39.73-.48,5.51-4.19,18.16-2.44,22.45,20.47,27.18,44.96,50.96,70.38,73.47,7.5,6.63,36.45,27.86,39.41,34.52.7,1.57.48,3.46,1.09,4.9,2.95,6.91,5.71,15.27,10.46,21,1.16-13.59,6.15-26.43,8.71-39.75,1.77-9.22,4.6-21.65,2.29-30.67-.35-1.38.03-3.11-1.98-3.5-.93,9.93-5.99,18.39-8.02,27.96-1.25.3-1.71-2-1.78-2.76-.24-2.51.48-9.92.9-12.61.74-4.85,7.46-23.61,5.73-26.41-.64-1.04-10.71-3.73-12.73-4.75-23.27-11.76-58.05-41.16-77.98-58.91-1.98-1.77-4.34-4.35-5.31-5.17-8.43-7.14-15.73-21.41-17.5-32.94-.25-1.64.04-10.18,3.22-6.21,3.39,4.24,5.36,16.3,8.69,22.28,10.93,19.62,51.68,39.13,72.55,47.33,21.68,8.52,53.02,19.17,73.68,3.24,10.08-7.77,10.25-26.39,13.21-37.73,6.4-24.54,23.77-48.24,21.27-75.14-8.23,1.38-13.82-2.16-20.99-4.98,8.18,8.43-.27,22.09-9.71,24.74-1.01.28-9.02,1.39-9.76,1.29-2.37-.33-2.08-2.42-3.22-3.15-.36-.23-7.4-2.89-7.83-2.95-2.72-.4-7.16,2.04-10.44,1.04,2.16-11.36,13.59-3.89,20.98-3.98-1.53,2.26-2.18,4.52-.51,6.97,3.17-2.77,9.47-4.24,12.48-6.5.74-.56,6.72-8.62,6.85-9.18.64-2.68-10.73-22.26-12.59-27-1.35-3.44-2.74-7.68-3.74-11.24-1.13-4.01-.38-11.18-4.43-12.54-13.29-4.45-14.14,10.42-18.18,18.88-11.13,23.29-33.32,38.6-59.82,31.13-14.57-4.11-19.6-16.89-22.52-30.43-.66-3.05-.51-10.73-1.71-12.79ZM180.69,347.78c-18.06,3.91-21.42,28.15-30.78,41.68,18.03,47.9,46.08,92.9,80.25,131.09,11.89-17.04,23.89-44.73,48.45-43.43-35.01-26.63-70.02-56.25-95.1-92.76-4.91-7.14-10.84-14.38-9.86-24.17.87-8.73,9-2.31,7.04-12.42ZM375.43,487.49l-27.12-59.07-2.75-1.73c-14.81,35.19-32.91,69.74-38.97,107.87l18.43-23.01,12.07-10.93c.67-1.47,26.33-19.57,38.33-13.13Z"/>
    <path d="M289.6,304.81c8.38-1.42,16.73-3.45,24.99-5.48,12.27-3.02,13.97-5.78,27.5-4.48,1.17.11,3.1-1.09,3.36-.92s2.99,4.84,3.02,5.31c.22,3.4-1.24,8.8-4.69,10.3-3.93,1.71-30.35,2.35-35.43,2.87-6.57.66-6.54,1.32-15.97,2.39,0,0-16.64,2.71-16.74,1.39-.73-9.78,13.95-11.38,13.95-11.38Z"/>
    <path d="M369.54,314.81c.34,1.6-.26,2.3-.98,3.52-2.95,5.04-6.71,10.21-9.46,15.52-2.54.87-5.73,2.2-8.29,2.7-22.84,4.52-45.29-6.33-63.21-19.25l48.46-2.95c11.59,3.27,21.89-2.22,33.47.46ZM362.54,318.82c-5.23.33-10.25,1.03-15.54,1.03-12.81,0-28.1-.47-40.88,1.53-.97.15-2.79-.08-2.52,1.41,16.42,9.77,35.03,12.43,53.85,9.9.61-5.36,2-9.49,5.09-13.88Z"/>
    <path d="M179.33,276.2c2.41,3.33,8.65,10.9,1.87,12.65,1.56-6.58-2.11-5.69-5.98-9.03-4.6-3.97-4.52-8.46-2.04-13.97,1.07-2.38,3.52-3.11,3.6-3.62.28-1.79-2.97-9.39-5.56-9.36-1.2.02-4.55,2.51-5.54,3.47-7.32,7.08-5.79,20.11.99,27.04l11.03,7.44c-6.96.94-17.57-7.56-19.41-14.04-1.86-6.53-.12-18.05,4.94-22.89,2.44-2.34,7.02-2.32,4.99-6-.23-.43-5.34-6.16-5.73-6.33-13.72-5.76-14.03,16.08-11.76,24.3-5.98-.36-4.71-14.01-3.73-18.22,3.12-13.52,10.63-15.16,21.2-6.72,4.97,3.96,13.56,16.87,12.31,23.21-.64,3.24-5.38,7.33-3.28,10.73.38.61,1.74.82,2.12,1.34Z"/>
    <path d="M371.19,300.17c.81.69,8.55,9.07,8.81,9.66.73,1.63.61,3.26.52,4.97-3.78-.98-8.74-.43-12.27-1.21-1.84-.41-3.47-1.96-5.43-2.56-4.26-1.29-6.01,1.66-8.78-4.21-1.61-3.42-3.78-8.49.02-9.99,6.1-2.41,12.32-.77,17.13,3.33Z"/>
    <path d="M349.55,352.78s-1.6-.2-3.39-.05c-2.6.22-8.72,2.6-11.27,2.82-1.71.15-12.21-5.74-11.32-9.78,7.83,3.73,17.86,2.79,26.39,1.92,2.21-.23,5.22-2.28,7.06-1.92,1.15.23,1.68,1.29.54,2.52-1.68,1.81-5.47,4.46-8.01,4.49Z"/>
    <path d="M322.57,271.87c-2.3,4.39-4.7,9.38-1.48,13.96,1.54,2.19,5.68,2.7,5.47,6-.81.71-9.92-2.34-10.86-3.12-.86-.71-.3-18.99,6.87-16.84Z"/>
  </g>
</svg>